<?xml version="1.0" encoding="UTF-8"?> <svg xmlns="http://www.w3.org/2000/svg" id="Layer_1" data-name="Layer 1" viewBox="0 0 60 60"><defs><style>.cls-1{fill:#00aff0;}.cls-2{fill:#fff;}.cls-3{fill:none;stroke:#fff;stroke-miterlimit:10;stroke-width:9.53px;}</style></defs><title>Contact-icons</title><circle class="cls-1" cx="29.8" cy="29.51" r="27.91"></circle><path class="cls-2" d="M41.16,47.36l1.57-6.79a1.58,1.58,0,0,0-.91-1.79l-7.31-3.14a1.58,1.58,0,0,0-1.83.45l-3.24,4A24.21,24.21,0,0,1,17.87,28.48l4-3.24a1.58,1.58,0,0,0,.45-1.83L19.15,16.1a1.59,1.59,0,0,0-1.81-.91l-6.79,1.56a1.57,1.57,0,0,0-1.21,1.53,30.3,30.3,0,0,0,30.29,30.3A1.55,1.55,0,0,0,41.16,47.36Z"></path><line class="cls-3" x1="45.75" y1="21.2" x2="36.56" y2="21.2"></line><polygon class="cls-2" points="37.96 31.62 37.96 10.79 27.55 21.2 37.96 31.62"></polygon></svg> 